SplineFontDB: 3.2
FontName: MNH48BeringinLintang
FullName: MNH48 Beringin Lintang
FamilyName: MNH48 Beringin
Weight: Regular
Copyright: Copyright (c) 2020, Yaya MNH48.\nReleased under SIL Open Font License.\n\nFont for Aksara Beringin.\nThis font variant is meant for horizontal setting.\nIt will displayed wrongly on vertical.\nhttp://jawi.mnh48.moe/mnh48-beringin
UComments: "2020-7-11: Created with FontForge (http://fontforge.org)"
Version: 3.0
ItalicAngle: 0
UnderlinePosition: -100
UnderlineWidth: 50
Ascent: 800
Descent: 200
InvalidEm: 0
sfntRevision: 0x00030000
LayerCount: 3
Layer: 0 0 "Back" 1
Layer: 1 0 "Fore" 0
Layer: 2 0 "Back 2" 1
HasVMetrics: 1
XUID: [1021 814 392742500 5261582]
StyleMap: 0x0000
FSType: 0
OS2Version: 0
OS2_WeightWidthSlopeOnly: 0
OS2_UseTypoMetrics: 1
CreationTime: 1594506946
ModificationTime: 1594753630
PfmFamily: 33
TTFWeight: 400
TTFWidth: 5
LineGap: 90
VLineGap: 90
OS2TypoAscent: 0
OS2TypoAOffset: 1
OS2TypoDescent: 0
OS2TypoDOffset: 1
OS2TypoLinegap: 90
OS2WinAscent: 0
OS2WinAOffset: 1
OS2WinDescent: 0
OS2WinDOffset: 1
HheadAscent: 0
HheadAOffset: 1
HheadDescent: 0
HheadDOffset: 1
OS2Vendor: 'PfEd'
MarkAttachClasses: 1
DEI: 91125
LangName: 1033
Encoding: Original
UnicodeInterp: none
NameList: AGL For New Fonts
DisplaySize: -48
AntiAlias: 1
FitToEm: 0
WinInfo: 0 14 9
BeginPrivate: 0
EndPrivate
TeXData: 1 0 0 629145 314572 209715 849347 1048576 209715 783286 444596 497025 792723 393216 433062 380633 303038 157286 324010 404750 52429 2506097 1059062 262144
BeginChars: 91 91

StartChar: uni0000
Encoding: 0 0 0
Width: 600
VWidth: 0
Flags: W
HStem: 230 130<260.902 343.629>
VStem: 240 130<250.902 333.629>
LayerCount: 3
Fore
SplineSet
240 290 m 0
 240 320 270 360 300 360 c 0
 330 360 370 320 370 290 c 0
 370 260 330 230 300 230 c 0
 270 230 240 260 240 290 c 0
EndSplineSet
Validated: 1
EndChar

StartChar: exclam
Encoding: 2 33 2
Width: 600
VWidth: 0
Flags: W
HStem: 680 20G<260 340 480 560>
VStem: 40 80<200 203 280 347.266> 260 80<338.344 444 540 699.957> 480 80<190 494 592.838 700>
CounterMasks: 1 70
LayerCount: 3
Fore
SplineSet
560 700 m 1
 560 530 560 360 560 190 c 1
 480 190 l 1
 480 494 l 1
 417 463 340 453 340 453 c 1
 340 415 340 378 340 340 c 0
 340 232 120 203 120 203 c 1
 120 200 l 1
 40 200 l 1
 40 200 40 244 40 287 c 0
 40 287 40 288 40 288 c 0
 40 409 189 496 260 527 c 1
 260 530 l 1
 260 530 261 530 263 530 c 0
 262 641 260 700 260 700 c 1
 340 700 l 1
 340 540 l 1
 402 553 477 580 480 640 c 2
 480 700 l 1
 483 700 l 1
 483 731 480 700 480 700 c 1
 483 700 l 1
 560 700 l 1
260 444 m 1
 226 411 121 368 120 290 c 2
 120 280 l 1
 183 291 257 326 260 390 c 2
 260 444 l 1
EndSplineSet
Validated: 5
EndChar

StartChar: parenleft
Encoding: 9 40 9
Width: 600
VWidth: 0
Flags: W
HStem: -10 21G<260 340> 680 80<40 260 340 480>
VStem: 260 80<-10 680> 480 80<450 680>
LayerCount: 3
Fore
SplineSet
40 760 m 25
 560 760 l 1
 560 450 l 25
 480 450 l 25
 480 680 l 25
 340 680 l 25
 340 -10 l 25
 260 -10 l 25
 260 680 l 25
 40 680 l 1
 40 760 l 25
EndSplineSet
Validated: 1
EndChar

StartChar: parenright
Encoding: 10 41 10
Width: 600
VWidth: 0
Flags: W
HStem: 40 80<120 260 340 560> 790 20G<260 340> 790 20G<260 340>
VStem: 40 80<120 350> 260 80<120 810>
LayerCount: 3
Fore
SplineSet
560 40 m 25xd8
 40 40 l 1
 40 350 l 25
 120 350 l 25
 120 120 l 25
 260 120 l 25
 260 810 l 25
 340 810 l 25
 340 120 l 25
 560 120 l 1
 560 40 l 25xd8
EndSplineSet
Validated: 1
EndChar

StartChar: comma
Encoding: 13 44 13
Width: 600
VWidth: 0
Flags: W
HStem: 680 20G<260 340>
VStem: 40 80<200 203 279.999 346.443> 260 80<338.344 447 518.053 699.956>
LayerCount: 3
Fore
SplineSet
340 700 m 1
 340 700 340 455 340 340 c 0
 340 232 120 203 120 203 c 1
 120 200 l 1
 40 200 l 1
 40 200 40 244 40 287 c 0
 40 287 40 288 40 288 c 0
 40 410 193 498 263 528 c 1
 262 640 260 700 260 700 c 2
 340 700 l 1
262 447 m 1
 231 413 121 370 120 290 c 0
 120 278 120 280 120 280 c 1
 183 291 257 326 260 390 c 0
 261 418 262 406 262 447 c 1
EndSplineSet
Validated: 5
EndChar

StartChar: period
Encoding: 15 46 15
Width: 600
VWidth: 0
Flags: W
HStem: 680 20G<260 340 482.435 560>
VStem: 40 79.9248<200.032 203 279.998 346.232> 260 80<338.622 444.415 540.126 699.957> 480 80<592.795 700>
LayerCount: 3
Fore
SplineSet
560 700 m 1
 560 590 l 2
 560 482 340 453 340 453 c 1
 340 415.333333333 340 377.666666667 340 340 c 0
 340 232 120 203 120 203 c 1
 120 200 l 1
 40 200 l 1
 40 200 40.3448341881 243.954860569 40 287 c 0
 39.0325515834 407.765148658 188.954787406 495.598501309 260 527.017892546 c 1
 260 530 l 1
 260 530 260.90879083 530.033509541 262.609579025 530.124268388 c 0
 262.22280447 640.879964309 260 700 260 700 c 1
 340 700 l 1
 340 540.126124708 l 1
 401.650545824 552.600049887 476.926729189 580.076091941 480 640 c 0
 481.558441558 670.38961039 482.307303087 689.040310339 482.562005375 700 c 1
 560 700 l 1
482.562005375 700 m 1
 483.287906898 731.235115534 480 700 480 700 c 1
 482.562005375 700 l 1
260 444.414562943 m 1
 225.981160336 410.628895096 120.94346648 368.231321635 119.924804688 290 c 0
 119.766435639 277.837553062 120 280 120 280 c 1
 183.296875 291.374023438 256.741210938 326.458007812 260 390 c 1
 260 444.414562943 l 1
EndSplineSet
Validated: 37
EndChar

StartChar: slash
Encoding: 16 47 16
Width: 600
VWidth: 0
Flags: W
HStem: 300 80<40 260 340 560> 420 80<40 260 340 560> 680 20G<260 340>
VStem: 260 80<100 300 500 700>
LayerCount: 3
Fore
SplineSet
265 380 m 1
 560 380 l 1
 560 300 l 1
 340 300 l 1
 340 233 340 167 340 100 c 1
 260 100 l 1
 260 300 l 1
 40 300 l 1
 40 380 l 1
 113 380 187 380 265 380 c 1
265 420 m 1
 187 420 113 420 40 420 c 1
 40 500 l 1
 260 500 l 1
 260 700 l 1
 340 700 l 1
 340 633 340 567 340 500 c 1
 560 500 l 1
 560 420 l 1
 265 420 l 1
EndSplineSet
Validated: 1
EndChar

StartChar: zero
Encoding: 17 48 17
Width: 600
VWidth: 0
Flags: W
HStem: 420 80<40 260 340 560> 680 20G<260 340>
VStem: 260 80<200 420 500 700>
LayerCount: 3
Fore
SplineSet
340 500 m 1
 560 500 l 1
 560 420 l 1
 340 420 l 1
 340 200 l 1
 260 200 l 1
 260 420 l 1
 187 420 113 420 40 420 c 1
 40 500 l 1
 260 500 l 1
 260 700 l 1
 340 700 l 1
 340 633 340 567 340 500 c 1
EndSplineSet
Validated: 1
EndChar

StartChar: one
Encoding: 18 49 18
Width: 600
VWidth: 0
Flags: W
HStem: 680 20G<257.382 340>
VStem: 260 80<200 573.855 656.841 700>
LayerCount: 3
Fore
SplineSet
260 573.85546875 m 1
 197.087890625 543.161132812 120 533 120 533 c 1
 120 530 l 1
 40 530 l 1
 40 610 l 1
 40 610 254.764648438 597.918945312 260 700 c 4
 340 700 l 1
 340 583.333007812 340 316.666992188 340 200 c 1
 260 200 l 1
 260 573.85546875 l 1
EndSplineSet
Validated: 37
EndChar

StartChar: two
Encoding: 19 50 19
Width: 600
VWidth: 0
Flags: W
HStem: 470 80<340 560> 680 20G<229.382 340>
VStem: 260 80<200 470>
LayerCount: 3
Fore
SplineSet
260 470 m 1
 40 470 l 1
 40 550 l 1
 40 550 198.764648438 630.918945312 260 700 c 0
 340 700 l 1
 340 550 l 1
 560 550 l 1
 560 470 l 1
 340 470 l 1
 340 200 l 1
 260 200 l 1
 260 470 l 1
EndSplineSet
Validated: 5
EndChar

StartChar: three
Encoding: 20 51 20
Width: 600
VWidth: 0
Flags: W
VStem: 260 80<656.841 700>
LayerCount: 3
Fore
SplineSet
340 573.85546875 m 1
 402.912109375 543.161132812 480 533 480 533 c 1
 480 530 l 1
 560 530 l 1
 560 610 l 1
 560 610 345.235351562 597.918945312 340 700 c 0
 260 700 l 1
 260 583.333007812 260 316.666992188 260 200 c 1
 340 200 l 1
 340 573.85546875 l 1
EndSplineSet
Validated: 37
EndChar

StartChar: four
Encoding: 21 52 21
Width: 600
VWidth: 0
Flags: W
LayerCount: 3
Fore
SplineSet
340 470 m 1
 560 470 l 1
 560 550 l 1
 560 550 401.235351562 630.918945312 340 700 c 0
 260 700 l 1
 260 550 l 1
 40 550 l 1
 40 470 l 1
 260 470 l 1
 260 200 l 1
 340 200 l 1
 340 470 l 1
EndSplineSet
Validated: 5
EndChar

StartChar: five
Encoding: 22 53 22
Width: 600
VWidth: 0
Flags: W
VStem: 40 77.4537<510 553.249>
LayerCount: 3
Fore
SplineSet
340 200 m 1
 340 700 l 1
 260 700 l 1
 260 700 40 658 40 550 c 0
 40 430 l 1
 117.453707165 430 l 1
 117.079027439 439.006332063 117.486910995 460.994764398 120 510 c 0
 123.073270811 569.923908059 198.349454176 597.399950113 260 609.873875292 c 1
 260 200 l 1
 340 200 l 1
117.453707165 430 m 1
 120 430 l 1
 120 430 117.973575286 417.503714262 117.453707165 430 c 1
EndSplineSet
Validated: 37
EndChar

StartChar: six
Encoding: 23 54 23
Width: 600
VWidth: 0
Flags: W
VStem: 40 77.4537<510 553.442>
LayerCount: 3
Fore
SplineSet
340 200 m 1
 340 610 l 1
 560 610 l 1
 560 700 l 1
 260 700 l 1
 260 700 40 658 40 550 c 0
 40 434.8828125 40 430 40 430 c 1
 117.453707165 430 l 1
 117.079027439 439.006332063 117.486910995 460.994764398 120 510 c 0
 123.073270811 569.923908059 198.349609375 598.400390625 260 610.874023438 c 1
 260 200 l 1
 340 200 l 1
117.453707165 430 m 1
 120 430 l 1
 120 430 117.973575286 417.503714262 117.453707165 430 c 1
EndSplineSet
Validated: 37
EndChar

StartChar: seven
Encoding: 24 55 24
Width: 600
VWidth: 0
Flags: W
HStem: 680 20G<260 340>
VStem: 260 80<200 609.874> 482.546 77.4541<430 553.249>
LayerCount: 3
Fore
SplineSet
260 200 m 1
 260 700 l 1
 340 700 l 1
 340 700 560 658 560 550 c 0
 560 434.8828125 560 430 560 430 c 1
 482.545898438 430 l 1
 482.920898438 439.005859375 482.512695312 460.995117188 480 510 c 0
 476.926757812 569.923828125 401.650390625 597.400390625 340 609.874023438 c 1
 340 200 l 1
 260 200 l 1
482.545898438 430 m 1
 480 430 l 1
 480 430 482.026367188 417.50390625 482.545898438 430 c 1
EndSplineSet
Validated: 37
EndChar

StartChar: eight
Encoding: 25 56 25
Width: 600
VWidth: 0
Flags: W
HStem: 610 90<40 260>
VStem: 260 80<200 610> 482.546 77.4541<430 553.442>
LayerCount: 3
Fore
SplineSet
260 200 m 1
 260 610 l 1
 40 610 l 1
 40 700 l 1
 340 700 l 1
 340 700 560 658 560 550 c 0
 560 434.8828125 560 430 560 430 c 1
 482.545898438 430 l 1
 482.920898438 439.005859375 482.512695312 460.995117188 480 510 c 0
 476.926757812 569.923828125 401.650390625 598.400390625 340 610.874023438 c 1
 340 200 l 5
 260 200 l 1
482.545898438 430 m 1
 480 430 l 1
 480 430 482.026367188 417.50390625 482.545898438 430 c 1
EndSplineSet
Validated: 37
EndChar

StartChar: nine
Encoding: 26 57 26
Width: 600
VWidth: 0
Flags: W
HStem: 280.274 83.5811<205.813 260 340 394.187> 680 20G<232 368>
VStem: 40 80<432.684 548.702> 260 80<200 283.342 363.855 616.006> 480 80<432.684 548.702>
CounterMasks: 1 38
LayerCount: 3
Fore
SplineSet
340 363.85546875 m 1
 409.342773438 386.453125 480 423.923828125 480 490 c 0
 480 556.075949842 409.34319085 602.563873386 340 616.005885822 c 1
 340 363.85546875 l 1
40 490 m 0
 40 626 164 700 300 700 c 4
 436 700 560 626 560 490 c 0
 560 367.487304688 459.375976562 299.828125 340 280.274414062 c 1
 340 200 l 1
 260 200 l 1
 260 280.274414062 l 1
 140.624023438 299.828125 40 367.487304688 40 490 c 0
260 616.005885822 m 1
 190.65680915 602.563873386 120 556.075949842 120 490 c 0
 120 423.923828125 190.657226562 386.453125 260 363.85546875 c 1
 260 616.005885822 l 1
EndSplineSet
Validated: 1
EndChar

StartChar: colon
Encoding: 27 58 27
Width: 600
VWidth: 0
Flags: W
HStem: 290 70<160 239.494> 290 60<392.209 450> 680 20G<260 340>
VStem: 260 80<380 700>
LayerCount: 3
Fore
SplineSet
120 200 m 1xb0
 40 200 l 1
 57 270 110 360 110 360 c 1xb0
 155.380859375 361.365234375 242.017578125 390.40234375 260 380 c 1
 260 700 l 1
 340 700 l 1
 340 380 l 1
 357.982421875 390.40234375 434.619140625 351.365234375 480 350 c 1
 480 350 543 270 560 200 c 1
 480.043945312 200 l 1
 450 290 l 1
 350 290 l 1
 300 320 l 1
 260 290 l 1x70
 160 290 l 1
 120 200 l 1xb0
EndSplineSet
Validated: 33
EndChar

StartChar: semicolon
Encoding: 28 59 28
Width: 600
VWidth: 0
Flags: W
HStem: 680 20G<80 160 260 340>
VStem: 40 79.9248<200.032 203 279.998 346.517> 80 80<530 700> 262.486 77.5137<340.808 447.011 518.107 699.956>
LayerCount: 3
Fore
SplineSet
160 700 m 25xb0
 160 530 l 25
 80 530 l 25
 80 700 l 25
 160 700 l 25xb0
340 700 m 1
 340 340 l 2
 340 232 120 203 120 203 c 1
 120 200 l 1
 40 200 l 1
 40 200 40.3448341881 243.954860569 40 287 c 0xd0
 39.0205078125 409.268554688 192.7109375 497.780273438 262.616210938 528.165039062 c 1
 262.249023438 640.182617188 260 700 260 700 c 1
 340 700 l 1
262.486328125 447.010742188 m 1
 231.465820312 412.791015625 120.969726562 370.248046875 119.924804688 290 c 0
 119.766435639 277.837553062 120 280 120 280 c 1
 183.296875 291.374023438 256.741210938 326.458007812 260 390 c 0
 261.426757812 417.821289062 262.174804688 405.592773438 262.486328125 447.010742188 c 1
EndSplineSet
Validated: 33
EndChar

StartChar: less
Encoding: 29 60 29
Width: 600
VWidth: 0
Flags: W
HStem: -10 21G<260 340> 680 80<40 260 340 390 450 490>
VStem: 260 80<-10 680> 390 60<530 680> 490 70<450 680>
LayerCount: 3
Fore
SplineSet
40 760 m 25
 560 760 l 1
 560 450 l 25
 490 450 l 25
 490 680 l 17
 450 680 l 1
 450 530 l 1
 390 530 l 1
 390 680 l 1
 340 680 l 9
 340 -10 l 25
 260 -10 l 25
 260 680 l 25
 40 680 l 1
 40 760 l 25
EndSplineSet
Validated: 1
EndChar

StartChar: greater
Encoding: 30 62 30
Width: 600
VWidth: 0
Flags: W
HStem: 40 80<110 150 210 260 340 560> 790 20G<260 340> 790 20G<260 340>
VStem: 40 70<120 350> 150 60<120 270> 260 80<120 810>
LayerCount: 3
Fore
SplineSet
560 40 m 25xdc
 40 40 l 1
 40 350 l 25
 110 350 l 25
 110 120 l 17
 150 120 l 1
 150 270 l 1
 210 270 l 1
 210 120 l 1
 260 120 l 9
 260 810 l 25
 340 810 l 25
 340 120 l 25
 560 120 l 1
 560 40 l 25xdc
EndSplineSet
Validated: 1
EndChar

StartChar: question
Encoding: 31 63 31
Width: 600
VWidth: 0
Flags: W
HStem: 680 20G<260 340 482.435 560>
VStem: 40 79.9248<200.032 203 279.998 346.232> 260 80<338.622 444.415 540.126 699.957> 480 80<592.795 700>
LayerCount: 3
Fore
SplineSet
375.993164062 156.426757812 m 29
 560.342773438 400.776367188 l 29
 503.774414062 457.345703125 l 29
 319.423828125 212.995117188 l 29
 375.993164062 156.426757812 l 29
560 700 m 1
 560 590 l 2
 560 482 340 453 340 453 c 1
 340 415.333333333 340 377.666666667 340 340 c 0
 340 232 120 203 120 203 c 1
 120 200 l 1
 40 200 l 1
 40 200 40.3448341881 243.954860569 40 287 c 0
 39.0325515834 407.765148658 188.954787406 495.598501309 260 527.017892546 c 1
 260 530 l 1
 260 530 260.90879083 530.033509541 262.609579025 530.124268388 c 0
 262.22280447 640.879964309 260 700 260 700 c 1
 340 700 l 1
 340 540.126124708 l 1
 401.650545824 552.600049887 476.926729189 580.076091941 480 640 c 0
 481.558441558 670.38961039 482.307303087 689.040310339 482.562005375 700 c 1
 560 700 l 1
482.562005375 700 m 1
 483.287906898 731.235115534 480 700 480 700 c 1
 482.562005375 700 l 1
260 444.414562943 m 1
 225.981160336 410.628895096 120.94346648 368.231321635 119.924804688 290 c 0
 119.766435639 277.837553062 120 280 120 280 c 1
 183.296875 291.374023438 256.741210938 326.458007812 260 390 c 1
 260 444.414562943 l 1
EndSplineSet
Validated: 37
EndChar

StartChar: A
Encoding: 33 65 33
Width: 600
VWidth: 0
Flags: W
HStem: 40 80<231.437 370.725> 790 20G<260 340> 790 20G<260 340>
VStem: 40.0559 84.9998<226.402 285.833> 260 80<533.422 810> 480 80<222.54 345.753>
LayerCount: 3
Fore
SplineSet
125.055664062 285 m 1xdc
 134.239257812 207.211914062 222.661677077 120 300 120 c 0
 379 120 480 211 480 290 c 0
 480 369 344 456 265 456 c 0
 260 536.725585938 l 1
 260 810 l 1
 340 810 l 1
 340 536.725585938 l 1
 459.375976562 517.171875 560 412.512695312 560 290 c 0
 560 154 436 40 300 40 c 0
 165.670040861 40 43.0471781242 151.217415828 40.055886988 285 c 0
 40.0186981252 286.663235688 124 288.330078125 125.055664062 285 c 1xdc
EndSplineSet
Validated: 33
EndChar

StartChar: B
Encoding: 34 66 34
Width: 600
VWidth: 0
Flags: W
HStem: -10 21G<260 340> 263.274 76.7259<227.042 260 340 372.958>
VStem: 40 80<443.1 576.94> 260 80<-10 266.578> 480 80<443.1 576.94>
CounterMasks: 1 38
LayerCount: 3
Fore
SplineSet
120 510 m 0
 120 431 221 340 300 340 c 0
 379 340 480 431 480 510 c 0
 480 544.960242502 460.220465609 582.270528694 431.321149957 613.004398638 c 1
 490.351583057 676.695129088 l 1
 532.988121278 632.158374301 560 573.475402199 560 510 c 0
 560 387.48777787 459.375739249 282.828247163 340 263.274050443 c 1
 340 -10 l 1
 260 -10 l 1
 260 263.274050443 l 1
 140.624260751 282.828247163 40 387.48777787 40 510 c 0
 40 573.475402199 67.0118787223 632.158374301 109.648416943 676.695129088 c 1
 168.678850043 613.004398638 l 1
 139.779534391 582.270528694 120 544.960242502 120 510 c 0
EndSplineSet
Validated: 1
EndChar

StartChar: D
Encoding: 36 68 36
Width: 600
VWidth: 0
Flags: W
HStem: -10 21G<260 340> 263.274 76.7259<227.042 260 340 372.958> 450 130<260.902 343.629> 680 80<229.275 370.725>
VStem: 40 80<443.1 577.46> 240 130<470.902 553.629> 260 80<-10 266.578> 480 80<443.1 577.46>
LayerCount: 3
Fore
SplineSet
240 510 m 4xfd
 240 540 270 580 300 580 c 4
 330 580 370 540 370 510 c 4
 370 480 330 450 300 450 c 4
 270 450 240 480 240 510 c 4xfd
120 510 m 0
 120 431 221 340 300 340 c 0
 379 340 480 431 480 510 c 0
 480 589 379 680 300 680 c 0
 221 680 120 589 120 510 c 0
40 510 m 0
 40 646 164 760 300 760 c 0
 436 760 560 646 560 510 c 0
 560 387.48777787 459.375739249 282.828247163 340 263.274050443 c 1
 340 -10 l 1
 260 -10 l 1
 260 263.274050443 l 1xfb
 140.624260751 282.828247163 40 387.48777787 40 510 c 0
EndSplineSet
Validated: 1
EndChar

StartChar: E
Encoding: 37 69 37
Width: 600
VWidth: 0
Flags: W
HStem: -20 160<261 340> 60 80<40 261 340 560> 220 80<184.986 557> 790 20G<260 340> 790 20G<260 340>
VStem: 260 80<-19.9766 60 595.3 810>
LayerCount: 3
Fore
SplineSet
560 140 m 5x64
 560 60 l 5
 487 60 413 60 340 60 c 5x64
 340 -20 l 5
 260 -20 l 5xa4
 260 -20 261 12 261 60 c 5
 40 60 l 5
 40 140 l 5
 560 140 l 5x64
557 220 m 1
 557 220 305 220 190 220 c 0
 82 220 40 440 40 440 c 1
 40 530 l 1
 40 530 255 538 260 640 c 0
 262 679 262.666666667 710.888888889 262.666666667 736.074074074 c 0
 262.666666667 786.444444444 260 810 260 810 c 1
 340 810 l 1x34
 340 810 340 705 340 590 c 0
 340 494 166 460 127 454 c 1
 139 391 165 303 230 300 c 0
 269 298 318.333333333 297.333333333 366.777777778 297.333333333 c 0
 463.666666667 297.333333333 557 300 557 300 c 1
 557 220 l 1
EndSplineSet
Validated: 1
EndChar

StartChar: G
Encoding: 39 71 39
Width: 600
VWidth: 0
Flags: W
HStem: -10 21G<260 340> 169.875 99.7195<359.978 430> 780 20G<260 340>
VStem: 260 80<-10 185 288.528 500 797 800> 480 80<319.742 627.054>
LayerCount: 3
Fore
SplineSet
560 320 m 25
 543 250 430 170 430 170 c 1
 426.25 169.916666667 422.625 169.875 419.119791667 169.875 c 0
 380.5625 169.875 356.5 174.916666667 340 185 c 1
 340 120 340 55 340 -10 c 1
 260 -10 l 1
 260 500 l 1
 340 500 l 1
 340 365 l 2
 340 363 340 362 340 360 c 2
 340 339 l 1
 344.464425137 306.632917757 366.368555602 269.594485872 396.675272065 269.594485872 c 0
 420.676495429 269.594485872 449.947613664 292.824077602 480 360 c 1
 480 580 l 1
 475 682 260 720 260 720 c 1
 260 747 260 773 260 800 c 1
 340 800 l 1
 340 797 l 1
 340 797 560 748 560 640 c 2
 560 320 l 25
EndSplineSet
Validated: 1
EndChar

StartChar: H
Encoding: 40 72 40
Width: 600
VWidth: 0
Flags: W
HStem: 40 80<202.43 370.725> 250.506 79.4941<130 350> 790 20G<260 340> 790 20G<260 340>
VStem: 40.0557 90<183.825 250.506> 260 80<533.422 810> 480 80<222.54 345.753>
LayerCount: 3
Fore
SplineSet
130.055664062 235 m 1xee
 139.239257812 157.211914062 222.661677077 120 300 120 c 0
 379 120 480 211 480 290 c 0
 480 369 344 456 265 456 c 0
 260 536.725585938 l 1
 260 810 l 1
 340 810 l 1
 340 536.725585938 l 1
 459.375976562 517.171875 560 412.512695312 560 290 c 0
 560 154 436 40 300 40 c 0
 165.670040861 40 43.046875 131.217773438 40.0556640625 265 c 0
 40 330 l 1
 350 330.724609375 l 1
 350 250.259765625 l 1
 130 250.505859375 l 1
 130.055664062 235 l 1xee
EndSplineSet
Validated: 1
EndChar

StartChar: K
Encoding: 43 75 43
Width: 600
VWidth: 0
Flags: W
HStem: -10 21G<260 340> 680 80<229.275 370.725>
VStem: 40 80<428.694 577.46> 260 80<-9 560> 480 80<435.995 577.46>
CounterMasks: 1 38
LayerCount: 3
Fore
SplineSet
340 -9 m 1
 260 -10 l 1
 260 560 l 1
 340 560 l 1
 340 -9 l 1
390.775390625 360 m 1
 440.979492188 393.43359375 480 459.653803359 480 510 c 0
 480 589 379 680 300 680 c 0
 221 680 120 589 120 510 c 0
 120 459.653804636 150.020507812 393.43359375 200.224609375 360 c 9
 170.45703125 290 l 1
 86.02734375 331.629882812 40 413.812420228 40 510 c 0
 40 646 164 760 300 760 c 0
 436 760 560 646 560 510 c 4
 560 419.613382575 517.228515625 333.944335938 440.565429688 290 c 0
 433.551757812 285.979492188 398.129882812 363.384765625 390.775390625 360 c 1
EndSplineSet
Validated: 33
EndChar

StartChar: L
Encoding: 44 76 44
Width: 600
VWidth: 0
Flags: W
HStem: 40 80<207.59 370.725> 790 20G<260 340> 790 20G<260 340>
VStem: 40.0557 85<225.136 350.844> 260 80<260 437.851 533.422 810> 480 80<222.54 346.041>
LayerCount: 3
Fore
SplineSet
340 260 m 1xdc
 260 260 l 1
 260 810 l 1
 340 810 l 1
 340 718.908528646 340 627.817057292 340 536.725585938 c 1
 459.375976562 517.171875 560 412.512695312 560 290 c 0
 560 154 436 40 300 40 c 0
 165.670040861 40 43.046875 83.2177734375 40.0556640625 350 c 0
 40.0370137707 351.663395355 124.903608193 353.490089676 125.055664062 350 c 0
 134.239257812 139.211914062 222.661677077 120 300 120 c 0
 379 120 480 211 480 290 c 0
 480 347.025618747 409.136150888 408.219699206 340 437.85065072 c 1
 340 260 l 1xdc
EndSplineSet
Validated: 33
EndChar

StartChar: M
Encoding: 45 77 45
Width: 600
VWidth: 0
Flags: W
HStem: -10 21G<260 340> 263.274 76.7259<227.042 260 340 372.958> 680 80<229.275 370.725>
VStem: 40 80<443.1 577.46> 260 80<-10 266.578> 480 80<443.1 577.46>
CounterMasks: 1 1c
LayerCount: 3
Fore
SplineSet
120 510 m 0
 120 431 221 340 300 340 c 0
 379 340 480 431 480 510 c 0
 480 589 379 680 300 680 c 0
 221 680 120 589 120 510 c 0
40 510 m 0
 40 646 164 760 300 760 c 0
 436 760 560 646 560 510 c 0
 560 387.48777787 459.375739249 282.828247163 340 263.274050443 c 1
 340 -10 l 1
 260 -10 l 1
 260 263.274050443 l 1
 140.624260751 282.828247163 40 387.48777787 40 510 c 0
EndSplineSet
Validated: 1
EndChar

StartChar: N
Encoding: 46 78 46
Width: 600
VWidth: 0
Flags: W
HStem: 40 80<231.437 370.725> 230 130<260.902 343.629> 790 20G<260 340> 790 20G<260 340>
VStem: 40.0559 84.9998<226.402 285.833> 240 130<250.902 333.629> 260 80<533.422 810> 480 80<222.54 345.753>
LayerCount: 3
Fore
SplineSet
240 290 m 4xcd
 240 320 270 360 300 360 c 4
 330 360 370 320 370 290 c 4
 370 260 330 230 300 230 c 4
 270 230 240 260 240 290 c 4xcd
125.055664062 285 m 1
 134.239257812 207.211914062 222.661677077 120 300 120 c 0
 379 120 480 211 480 290 c 0
 480 369 344 456 265 456 c 0
 260 536.725585938 l 1
 260 810 l 1
 340 810 l 1
 340 536.725585938 l 1xeb
 459.375976562 517.171875 560 412.512695312 560 290 c 0
 560 154 436 40 300 40 c 0
 165.670040861 40 43.0471781242 151.217415828 40.055886988 285 c 0
 40.0186981252 286.663235688 124 288.330078125 125.055664062 285 c 1
EndSplineSet
Validated: 33
EndChar

StartChar: P
Encoding: 48 80 48
Width: 600
VWidth: 0
Flags: W
HStem: -10 21G<260 340> 263.274 83.5814<216.273 260 340 383.727> 680 80<229.275 370.725>
VStem: 40 80<443.894 577.46> 260 80<-10 266.578 346.855 560> 480 80<443.894 577.46>
CounterMasks: 1 1c
LayerCount: 3
Fore
SplineSet
40 510 m 0
 40 646 164 760 300 760 c 0
 436 760 560 646 560 510 c 0
 560 387.48777787 459.375739249 282.828247163 340 263.274050443 c 1
 340 -10 l 1
 260 -10 l 1
 260 263.274050443 l 1
 140.624260751 282.828247163 40 387.48777787 40 510 c 0
340 346.855464153 m 1
 409.34319085 369.453231901 480 443.924050158 480 510 c 0
 480 589 379 680 300 680 c 0
 221 680 120 589 120 510 c 0
 120 443.924050158 190.65680915 369.453231901 260 346.855464153 c 1
 260 560 l 5
 340 560 l 5
 340 346.855464153 l 1
EndSplineSet
Validated: 1
EndChar

StartChar: R
Encoding: 50 82 50
Width: 600
VWidth: 0
Flags: W
HStem: -10 21G<260 340> 263.274 83.5814<216.273 260 340 383.727>
VStem: 40 80<443.894 576.94> 260 80<-10 266.578 346.855 550> 480 80<443.894 576.94>
CounterMasks: 1 38
LayerCount: 3
Fore
SplineSet
340 346.855464153 m 1
 409.34319085 369.453231901 480 443.924050158 480 510 c 0
 480 544.960242502 460.220465609 582.270528694 431.321149957 613.004398638 c 1
 490.351583057 676.695129088 l 1
 532.988121278 632.158374301 560 573.475402199 560 510 c 0
 560 387.48777787 459.375739249 282.828247163 340 263.274050443 c 1
 340 -10 l 1
 260 -10 l 1
 260 263.274050443 l 1
 140.624260751 282.828247163 40 387.48777787 40 510 c 0
 40 573.475402199 67.0118787223 632.158374301 109.648416943 676.695129088 c 1
 168.678850043 613.004398638 l 1
 139.779534391 582.270528694 120 544.960242502 120 510 c 0
 120 443.924050158 190.65680915 369.453231901 260 346.855464153 c 1
 260 550 l 1
 340 550 l 1
 340 346.855464153 l 1
EndSplineSet
Validated: 1
EndChar

StartChar: S
Encoding: 51 83 51
Width: 600
VWidth: 0
Flags: W
HStem: 120 80<40 261 340 560> 260 80<227.042 372.958> 680 80<229.275 370.725>
VStem: 40 80<443.1 577.46> 260 80<-19.9331 120 260 266.578> 480 80<443.1 577.46>
CounterMasks: 1 1c
LayerCount: 3
Fore
SplineSet
560 200 m 5
 560 120 l 5
 487 120 413 120 340 120 c 5
 340 -20 l 1
 260 -20 l 1
 260 -20 261 72 261 120 c 5
 40 120 l 5
 40 200 l 5
 560 200 l 5
120 510 m 0
 120 431 221 340 300 340 c 0
 379 340 480 431 480 510 c 0
 480 589 379 680 300 680 c 0
 221 680 120 589 120 510 c 0
40 510 m 0
 40 646 164 760 300 760 c 0
 436 760 560 646 560 510 c 0
 560 387.48777787 459.375739249 282.828247163 340 263.274050443 c 1
 340 260 l 1
 260 260 l 1
 260 263.274050443 l 1
 140.624260751 282.828247163 40 387.48777787 40 510 c 0
EndSplineSet
Validated: 1
EndChar

StartChar: T
Encoding: 52 84 52
Width: 600
VWidth: 0
Flags: W
HStem: -10 21G<260 340> 263.274 76.7259<227.042 260 340 372.958> 450 130<260.902 343.629>
VStem: 40 80<443.1 576.94> 240 130<470.902 553.629> 260 80<-10 266.578> 480 80<443.1 576.94>
LayerCount: 3
Fore
SplineSet
240 510 m 0xfa
 240 540 270 580 300 580 c 0
 330 580 370 540 370 510 c 0
 370 480 330 450 300 450 c 0
 270 450 240 480 240 510 c 0xfa
120 510 m 0
 120 431 221 340 300 340 c 0
 379 340 480 431 480 510 c 0
 480 544.960242502 460.220465609 582.270528694 431.321149957 613.004398638 c 1
 490.351583057 676.695129088 l 1
 532.988121278 632.158374301 560 573.475402199 560 510 c 0
 560 387.48777787 459.375739249 282.828247163 340 263.274050443 c 1
 340 -10 l 1
 260 -10 l 1
 260 263.274050443 l 1xf6
 140.624260751 282.828247163 40 387.48777787 40 510 c 0
 40 573.475402199 67.0118787223 632.158374301 109.648416943 676.695129088 c 1
 168.678850043 613.004398638 l 1
 139.779534391 582.270528694 120 544.960242502 120 510 c 0
EndSplineSet
Validated: 1
EndChar

StartChar: X
Encoding: 56 88 56
Width: 600
VWidth: 0
Flags: W
HStem: 40 80<231.437 370.725> 790 20G<260 340> 790 20G<260 340>
VStem: 40.0559 84.9998<226.402 285.833> 260 80<533.422 810> 480 80<222.54 345.753>
LayerCount: 3
Fore
SplineSet
253.7734375 266.426757812 m 25x9c
 49.423828125 480.776367188 l 25
 85.9921875 567.345703125 l 25
 300.342773438 332.995117188 l 25
 253.7734375 266.426757812 l 25x9c
125.055664062 285 m 1
 134.239257812 207.211914062 222.661677077 120 300 120 c 0
 379 120 480 211 480 290 c 0
 480 369 344 456 265 456 c 0
 260 536.725585938 l 1
 260 810 l 1
 340 810 l 1xdc
 340 536.725585938 l 1
 459.375976562 517.171875 560 412.512695312 560 290 c 0
 560 154 436 40 300 40 c 0
 165.670040861 40 43.0471781242 151.217415828 40.055886988 285 c 0
 40.0186981252 286.663235688 124 288.330078125 125.055664062 285 c 1
EndSplineSet
Validated: 33
EndChar

StartChar: Y
Encoding: 57 89 57
Width: 600
VWidth: 0
Flags: W
HStem: -10 21G<260 340> 780 20G<260 340>
VStem: 40 79.9561<322.946 627.083> 260 80<-10 184.774 289.585 500 797 800>
LayerCount: 3
Fore
SplineSet
40 320 m 25
 40 640 l 2
 40 748 260 797 260 797 c 1
 260 800 l 1
 340 800 l 1
 340 773.333333333 340 746.666666667 340 720 c 1
 340 720 125.235351562 682.081054688 120 580 c 1
 119.956054688 360 l 1
 188.119140625 207.825195312 252.334960938 281.084960938 260 338.77734375 c 1
 260 360 l 2
 259.7265625 361.704101562 259.736328125 363.213867188 260 364.547851562 c 2
 260 500 l 1
 340 500 l 1
 340 -10 l 1
 260 -10 l 1
 260 54.9248046875 260 119.849609375 260 184.774414062 c 1
 242.017578125 174.372070312 215.380859375 168.634765625 170 170 c 1
 170 170 57 250 40 320 c 25
EndSplineSet
Validated: 33
EndChar

StartChar: bracketleft
Encoding: 59 91 59
Width: 600
VWidth: 0
Flags: W
HStem: -10 21G<260 340> 680 80<120 260 340 560>
VStem: 40 80<450 680> 260 80<-10 680>
LayerCount: 3
Fore
SplineSet
560 760 m 25
 560 680 l 1
 340 680 l 25
 340 -10 l 25
 260 -10 l 25
 260 680 l 25
 120 680 l 25
 120 450 l 25
 40 450 l 25
 40 760 l 1
 560 760 l 25
EndSplineSet
Validated: 1
EndChar

StartChar: bracketright
Encoding: 61 93 61
Width: 600
VWidth: 0
Flags: W
HStem: 40 80<40 260 340 480> 790 20G<260 340> 790 20G<260 340>
VStem: 260 80<120 810> 480 80<120 350>
LayerCount: 3
Fore
SplineSet
40 40 m 25xd8
 40 120 l 1
 260 120 l 25
 260 810 l 25
 340 810 l 25
 340 120 l 25
 480 120 l 25
 480 350 l 25
 560 350 l 25
 560 40 l 1
 40 40 l 25xd8
EndSplineSet
Validated: 1
EndChar

StartChar: a
Encoding: 65 97 65
Width: 600
VWidth: 0
Flags: W
HStem: 220 80<184.986 260 340 556.847> 790 20G<260 340> 790 20G<260 340>
VStem: 260.329 79.6709<-19.9763 220 595.272 809.961>
LayerCount: 3
Fore
SplineSet
340 220 m 1xd0
 340 -20 l 1
 260 -20 l 1
 260 -20 259.6640625 12.4208984375 260.329101562 60 c 2
 260 141 l 1
 260 220 l 1
 190 220 l 2
 82 220 40 440 40 440 c 1
 40 530 l 1
 40 530 254.764648438 537.918945312 260 640 c 0
 266 757 260 810 260 810 c 1
 340 810 l 1
 340 810 340 705.1171875 340 590 c 0
 340 493.941192852 165.959810119 460.378635706 127.473745836 454.131156349 c 1
 138.512791533 390.5266599 165.403938516 303.312887905 230 300 c 0
 347 294 557 300 557 300 c 1
 557 220 l 1
 340 220 l 1xd0
EndSplineSet
Validated: 33
EndChar

StartChar: b
Encoding: 66 98 66
Width: 600
VWidth: 0
Flags: HMW
LayerCount: 3
Fore
SplineSet
40 810 m 25
 40 350 l 2
 40 242 260 213 260 213 c 25
 260 -10 l 1
 340 -10 l 1
 340 290 l 1
 340 290 125.235351562 297.918945312 120 400 c 0
 114 517 120 810 120 810 c 1
 40 810 l 25
260 810 m 29
 260 460 l 29
 340 460 l 29
 340 810 l 29
 260 810 l 29
EndSplineSet
Validated: 41
EndChar

StartChar: c
Encoding: 67 99 67
Width: 600
VWidth: 0
Flags: W
VStem: 40 80<145.272 599.787> 260 80<358.622 410 592.148 819.92> 480.075 79.9248<220.049 223 300.013 430.987>
LayerCount: 3
Fore
SplineSet
40 600 m 1
 40 600 40 255.1171875 40 140 c 0
 40 32 260 3 260 3 c 1
 260 0 l 1
 340 0 l 1
 340 80 l 1
 340 80 125.235351562 87.9189453125 120 190 c 0
 114 307 120 600 120 600 c 1
 40 600 l 1
260 820 m 1
 260 820 260 475.1171875 260 360 c 0
 260 252 480 223 480 223 c 1
 480 220 l 1
 560 220 l 1
 560 220 559.768570622 286.954135617 560 330 c 0
 560.979938553 512.268570874 457.289404214 567.780238795 337.383804185 598.164620551 c 1
 337.751186185 710.182925348 340 820 340 820 c 2
 260 820 l 1
337.513365237 517.010994516 m 1
 418.534412128 482.790718981 479.030103334 460.248274394 480.075195312 330 c 0
 480.172790939 317.836801611 480 300 480 300 c 1
 416.703125 311.374023438 343.258844201 346.457705066 340 410 c 0
 338.573289591 437.820852966 337.825080046 475.593051927 337.513365237 517.010994516 c 1
EndSplineSet
Validated: 41
EndChar

StartChar: d
Encoding: 68 100 68
Width: 600
VWidth: 0
Flags: W
HStem: -10 21G<260 340> 780 20G<260 340>
VStem: 40 80<200.213 654.728> 260 80<-10 500 797 800>
LayerCount: 3
Fore
SplineSet
40 200 m 25
 40 650 l 2
 40 758 260 797 260 797 c 25
 260 800 l 1
 340 800 l 1
 340 720 l 1
 340 720 125.235351562 712.081054688 120 610 c 0
 114 493 120 200 120 200 c 1
 40 200 l 25
260 -10 m 29
 260 500 l 29
 340 500 l 29
 340 -10 l 29
 260 -10 l 29
EndSplineSet
Validated: 33
EndChar

StartChar: e
Encoding: 69 101 69
Width: 600
VWidth: 0
Flags: W
HStem: 220 77.4053<186.096 260 340 556.919> 790 20G<260 340> 790 20G<260 340>
VStem: 260 80<-19.9763 220 298.772 493.856 595.272 809.968>
LayerCount: 3
Fore
SplineSet
340 220 m 1xd0
 340 140 340 60 340 -20 c 1
 260 -20 l 1
 260 -20 259.6640625 12.4208984375 260.329101562 60 c 2
 260 141 l 2
 260 167.333333333 260 193.666666667 260 220 c 1
 190 220 l 2
 82 220 40 440 40 440 c 1
 40 530 l 1
 40 530 254.764648438 537.918945312 260 640 c 1
 260 670 l 1
 261.339904914 670 l 1
 264.970076381 766.097658639 260 810 260 810 c 1
 340 810 l 1
 340 297.405287335 l 1
 445.69207728 296.819773637 557 300 557 300 c 2
 557 220 l 1
 340 220 l 1xd0
260 493.855623543 m 1
 208.838929899 468.894773883 148.303162836 457.512415388 127.473745836 454.131156349 c 1
 138.512791533 390.5266599 165.403938516 303.312887905 230 300 c 0
 239.446866283 299.515545319 249.500031439 299.10932275 260 298.771857316 c 1
 260 493.855623543 l 1
EndSplineSet
Validated: 33
EndChar

StartChar: f
Encoding: 70 102 70
Width: 600
VWidth: 0
Flags: W
HStem: -10 21G<260 340> 780 20G<260 340> 790 20G<480 560> 790 20G<480 560>
VStem: 40 80<200.213 654.728> 260 80<-10 213 797 800> 480 80<355.272 809.787>
CounterMasks: 1 0e
LayerCount: 3
Fore
SplineSet
340 410 m 29x8e
 340 600 l 29
 260 600 l 29
 260 410 l 29
 340 410 l 29x8e
40 200 m 25
 40 200 40 534.8828125 40 650 c 0
 40 758 260 797 260 797 c 25
 260 800 l 1
 340 800 l 1xce
 340 720 l 1
 340 720 125.235351562 712.081054688 120 610 c 0
 114 493 120 200 120 200 c 1
 40 200 l 25
560 810 m 25xae
 560 810 560 465.1171875 560 350 c 0
 560 242 340 213 340 213 c 25
 340 -10 l 1
 260 -10 l 1
 260 290 l 1
 260 290 474.764648438 297.918945312 480 400 c 0
 486 517 480 810 480 810 c 1
 560 810 l 25xae
EndSplineSet
Validated: 41
EndChar

StartChar: g
Encoding: 71 103 71
Width: 600
VWidth: 0
Flags: W
HStem: 780 20G<260 340>
VStem: 40 80<200.213 654.728> 260 80<-19.92 207.851 282.989 441.378 797 800> 480.075 79.9248<369.013 500 577 579.951>
LayerCount: 3
Fore
SplineSet
40 200 m 1
 40 660 l 2
 40 768 260 797 260 797 c 1
 260 800 l 1
 340 800 l 1
 340 720 l 1
 340 720 125.235351562 712.081054688 120 610 c 0
 114 493 120 200 120 200 c 1
 40 200 l 1
260 -20 m 1
 260 440 l 6
 260 548 480 577 480 577 c 5
 480 580 l 5
 560 580 l 5
 560 580 559.768554688 513.045898438 560 470 c 4
 560.979492188 287.731445312 457.2890625 232.219726562 337.383789062 201.834960938 c 5
 337.750976562 89.8173828125 340 -20 340 -20 c 1
 260 -20 l 1
337.513671875 282.989257812 m 5
 418.534179688 317.208984375 479.030273438 339.751953125 480.075195312 470 c 4
 480.172851562 482.163085938 480 500 480 500 c 5
 416.703125 488.625976562 343.258789062 453.541992188 340 390 c 4
 338.573242188 362.178710938 337.825195312 324.407226562 337.513671875 282.989257812 c 5
EndSplineSet
Validated: 33
EndChar

StartChar: h
Encoding: 72 104 72
Width: 600
VWidth: 0
Flags: W
HStem: -10 21G<260 340> 780 20G<260 340> 790 20G<480 560> 790 20G<480 560>
VStem: 40 80<200.213 654.728> 260 80<-10 213 797 800> 480 80<355.272 809.787>
CounterMasks: 1 0e
LayerCount: 3
Fore
SplineSet
40 200 m 29xce
 40 200 40 534.8828125 40 650 c 4
 40 758 260 797 260 797 c 29
 260 800 l 5
 340 800 l 5
 340 720 l 5
 340 720 125.235351562 712.081054688 120 610 c 4
 114 493 120 200 120 200 c 5
 40 200 l 29xce
560 810 m 25xae
 560 350 l 2
 560 242 340 213 340 213 c 25
 340 -10 l 1
 260 -10 l 1
 260 290 l 1
 260 290 474.764648438 297.918945312 480 400 c 0
 486 517 480 810 480 810 c 1
 560 810 l 25xae
EndSplineSet
Validated: 33
EndChar

StartChar: i
Encoding: 73 105 73
Width: 600
VWidth: 0
Flags: W
HStem: 220 80<184.986 260 340 556.847> 790 20G<260 340> 790 20G<260 340>
VStem: 260.329 79.6709<-19.9763 220 595.272 809.961>
LayerCount: 3
Fore
SplineSet
375.993164062 336.426757812 m 1x90
 560.342773438 580.776367188 l 1
 503.774414062 637.345703125 l 1
 319.423828125 392.995117188 l 1
 375.993164062 336.426757812 l 1x90
340 220 m 1
 340 -20 l 1
 260 -20 l 1
 260 -20 259.6640625 12.4208984375 260.329101562 60 c 2
 260 141 l 1
 260 220 l 1
 190 220 l 2
 82 220 40 440 40 440 c 1
 40 530 l 1
 40 530 254.764648438 537.918945312 260 640 c 0
 266 757 260 810 260 810 c 1
 340 810 l 1xd0
 340 810 340 705.1171875 340 590 c 0
 340 493.941192852 165.959810119 460.378635706 127.473745836 454.131156349 c 1
 138.512791533 390.5266599 165.403938516 303.312887905 230 300 c 0
 347 294 557 300 557 300 c 1
 557 220 l 1
 340 220 l 1
EndSplineSet
Validated: 41
EndChar

StartChar: j
Encoding: 74 106 74
Width: 600
VWidth: 0
Flags: W
HStem: 0 21G<260 340>
VStem: 40 79.9248<220.049 223 300.013 430.987> 260 80<0 3 358.622 517.011 592.148 819.92> 480 80<145.272 599.787>
LayerCount: 3
Fore
SplineSet
560 600 m 1
 560 600 560 255.1171875 560 140 c 0
 560 32 340 3 340 3 c 1
 340 0 l 1
 260 0 l 1
 260 80 l 1
 260 80 474.764648438 87.9189453125 480 190 c 0
 486 307 480 600 480 600 c 1
 560 600 l 1
340 820 m 1
 340 820 340 475.1171875 340 360 c 0
 340 252 120 223 120 223 c 1
 120 220 l 1
 40 220 l 1
 40 220 40.2314453125 286.954101562 40 330 c 0
 39.0200614469 512.268570874 142.710595786 567.780238795 262.616195815 598.164620551 c 1
 262.248813815 710.182925348 260 820 260 820 c 2
 340 820 l 1
262.486634763 517.010994516 m 1
 181.465587872 482.790718981 120.969896666 460.248274394 119.924804688 330 c 0
 119.827148438 317.836914062 120 300 120 300 c 1
 183.296875 311.374023438 256.741210938 346.458007812 260 410 c 0
 261.426710409 437.820852966 262.174919954 475.593051927 262.486634763 517.010994516 c 1
EndSplineSet
Validated: 33
EndChar

StartChar: k
Encoding: 75 107 75
Width: 600
VWidth: 0
Flags: W
VStem: 40 79.9248<369.013 500 577 579.951> 260 80<-19.92 207.851 390 441.378> 480 80<200.213 654.728>
LayerCount: 3
Fore
SplineSet
560 200 m 1
 560 660 l 2
 560 768 340 797 340 797 c 1
 340 800 l 1
 260 800 l 1
 260 720 l 1
 260 720 474.764648438 712.081054688 480 610 c 0
 486 493 480 200 480 200 c 1
 560 200 l 1
340 -20 m 5
 340 440 l 6
 340 548 120 577 120 577 c 5
 120 580 l 5
 40 580 l 5
 40 580 40.2314453125 513.045898438 40 470 c 4
 39.0205078125 287.731445312 142.7109375 232.219726562 262.616210938 201.834960938 c 5
 262.249023438 89.8173828125 260 -20 260 -20 c 5
 340 -20 l 5
262.486328125 282.989257812 m 5
 181.465820312 317.208984375 120.969726562 339.751953125 119.924804688 470 c 4
 119.827148438 482.163085938 120 500 120 500 c 5
 183.296875 488.625976562 256.741210938 453.541992188 260 390 c 4
 261.426757812 362.178710938 262.174804688 324.407226562 262.486328125 282.989257812 c 5
EndSplineSet
Validated: 41
EndChar

StartChar: l
Encoding: 76 108 76
Width: 600
VWidth: 0
Flags: W
HStem: -10 21G<260 340> 780 20G<260 340>
VStem: 40 79.9561<322.946 629.931> 260 80<-10 184.774 289.585 500 797 800> 480 80<200.213 655.012>
LayerCount: 3
Fore
SplineSet
560 200 m 1
 480 200 l 1
 480 200 486 493 480 610 c 0
 476.479135975 678.651266061 378.192487836 704.714950042 314.195711199 714.423262063 c 1
 256.966485157 700.616002576 124.104037145 660.022216547 120 580 c 1
 119.956054688 360 l 1
 188.119140625 207.825195312 252.334960938 281.084960938 260 338.77734375 c 1
 260 360 l 2
 259.7265625 361.704101562 259.736328125 363.213867188 260 364.547851562 c 2
 260 500 l 1
 340 500 l 1
 340 -10 l 1
 260 -10 l 1
 260 54.9248046875 260 119.849609375 260 184.774414062 c 1
 242.017578125 174.372070312 215.380859375 168.634765625 170 170 c 1
 170 170 57 250 40 320 c 1
 40 640 l 2
 40 748 260 797 260 797 c 1
 260 800 l 1
 340 800 l 1
 340 797 l 1
 340 797 560 758 560 650 c 0
 560 200 l 1
EndSplineSet
Validated: 33
EndChar

StartChar: m
Encoding: 77 109 77
Width: 600
VWidth: 0
Flags: W
VStem: 40 80<355.272 400 600 637.054> 260 80<621.223 670.415>
LayerCount: 3
Fore
SplineSet
40 670 m 1
 40 350 l 2
 40 242 260 213 260 213 c 1
 260 -10 l 1
 340 -10 l 1
 340 290 l 1
 340 290 125.235351562 297.918945312 120 400 c 1
 119.956054688 600 l 1
 188.119612097 752.174604076 252.334981395 678.91492894 260 621.222862515 c 1
 260 600 l 2
 259.726177692 598.296216753 259.736637075 596.785775111 260 595.452220086 c 2
 260 460 l 1
 340 460 l 1
 340 576.666666667 340 693.333333333 340 810 c 1
 260 810 l 1
 260 775.225138114 l 1
 242.017502406 785.62781089 215.380886492 791.364838691 170 790 c 0
 139.014010509 789.068090542 57 729 40 670 c 1
EndSplineSet
Validated: 41
EndChar

StartChar: n
Encoding: 78 110 78
Width: 600
VWidth: 0
Flags: W
HStem: -10 21G<260 340> 790 20G<260 340> 790 20G<260 340>
VStem: 260 80<-10 213 460 670.415 775.226 810> 480 80<355.272 637.054>
LayerCount: 3
Fore
SplineSet
560 670 m 1xb8
 560 350 l 2
 560 242 340 213 340 213 c 1
 340 -10 l 1
 260 -10 l 1
 260 290 l 1
 260 290 474.764648438 297.918945312 480 400 c 1
 480.043945312 600 l 1
 411.880859375 752.174804688 347.665039062 678.915039062 340 621.22265625 c 1
 340 600 l 2
 340.2734375 598.295898438 340.263671875 596.786132812 340 595.452148438 c 2
 340 460 l 1
 260 460 l 1
 260 576.666666667 260 693.333333333 260 810 c 1
 340 810 l 1xd8
 340 775.225585938 l 1
 357.982421875 785.627929688 384.619140625 791.365234375 430 790 c 0
 460.986328125 789.068359375 543 729 560 670 c 1xb8
EndSplineSet
Validated: 33
EndChar

StartChar: o
Encoding: 79 111 79
Width: 600
VWidth: 0
Flags: W
HStem: 220 78.3441<184.986 260 343.438 480.009> 790 20G<260 340> 790 20G<260 340>
VStem: 260.329 79.6709<-19.9763 220 298.757 352.533 595.272 809.961> 480.009 79.9914<298.344 410.009>
LayerCount: 3
Fore
SplineSet
340 220 m 1xd8
 340 -20 l 1
 260 -20 l 1
 260 -20 259.6640625 12.4208984375 260.329101562 60 c 2
 260 141 l 1
 260 220 l 1
 190 220 l 2
 82 220 40 440 40 440 c 1
 40 530 l 1
 40 530 254.764648438 537.918945312 260 640 c 0
 266 757 260 810 260 810 c 1
 340 810 l 1
 340 590 l 2
 340 493.941192852 165.959810119 460.378635706 127.473745836 454.131156349 c 1
 138.512791533 390.5266599 165.403938516 303.312887905 230 300 c 0
 239.590145214 299.508197681 249.805120023 299.097018536 260.478061218 298.756549899 c 1
 260.788326143 483.768913758 480 492 480 492 c 1
 480 490 l 1
 560 490 l 1
 560 490 559.768554688 293.045898438 560 250 c 1
 557 249.899848403 l 1
 557 220 l 1
 340 220 l 1xd8
343.437755755 297.387570704 m 1
 391.769315214 297.157006397 441.008406659 297.69658564 480.008555766 298.344141644 c 1
 480.075195312 410 l 2
 480.172851562 422.163085938 480 410 480 410 c 2
 422.646455471 409.550496117 344.649757713 374.264983172 343.437755755 297.387570704 c 1
EndSplineSet
Validated: 33
EndChar

StartChar: p
Encoding: 80 112 80
Width: 600
VWidth: 0
Flags: W
HStem: -10 21G<260 340> 790 20G<260 340 480 560> 790 20G<260 340 480 560>
VStem: 260 80<-10 213 460 810> 480 80<355.272 809.787>
LayerCount: 3
Fore
SplineSet
560 810 m 29xd8
 560 350 l 6
 560 242 340 213 340 213 c 29
 340 -10 l 5
 260 -10 l 5
 260 290 l 5
 260 290 474.764648438 297.918945312 480 400 c 4
 486 517 480 810 480 810 c 5
 560 810 l 29xd8
340 810 m 25
 340 460 l 25
 260 460 l 25
 260 810 l 25
 340 810 l 25
EndSplineSet
Validated: 33
EndChar

StartChar: q
Encoding: 81 113 81
Width: 600
VWidth: 0
Flags: W
VStem: 40 79.9248<369.013 500 577 579.951> 260 80<-19.9763 60 201.835 207.851 390 441.378> 480 80<200.213 654.728>
LayerCount: 3
Fore
SplineSet
262.486328125 282.989257812 m 1
 181.465820312 317.208984375 120.969726562 339.751953125 119.924804688 470 c 0
 119.827148438 482.163085938 120 500 120 500 c 1
 183.296875 488.625976562 256.741210938 453.541992188 260 390 c 0
 261.426757812 362.178710938 262.174804688 324.407226562 262.486328125 282.989257812 c 1
560 200 m 1
 560 200 560 544.8828125 560 660 c 0
 560 768 340 797 340 797 c 1
 340 800 l 1
 260 800 l 1
 260 720 l 1
 260 720 474.764648438 712.081054688 480 610 c 0
 486 493 480 200 480 200 c 1
 560 200 l 1
340 60 m 1
 413.333333333 60 486.666666667 60 560 60 c 1
 560 140 l 1
 486.666666667 140 413.333333333 140 340 140 c 1
 340 440 l 2
 340 548 120 577 120 577 c 1
 120 580 l 1
 40 580 l 1
 40 580 40.2314453125 513.045898438 40 470 c 0
 39.0205078125 287.731445312 142.7109375 232.219726562 262.616210938 201.834960938 c 1
 262.547629303 180.912820182 262.413399648 160.067433443 262.240437334 140 c 1
 40 140 l 5
 40 60 l 5
 261.329279439 60 l 1
 260.663970673 12.420970073 260 -20 260 -20 c 1
 340 -20 l 1
 340 60 l 1
EndSplineSet
Validated: 41
EndChar

StartChar: r
Encoding: 82 114 82
Width: 600
VWidth: 0
Flags: W
VStem: 40 80<200.213 655.012> 260 80<289.585 338.777> 480.044 79.9561<322.946 360 580 629.931>
LayerCount: 3
Fore
SplineSet
40 200 m 1
 120 200 l 1
 120 200 114 493 120 610 c 0
 123.520507812 678.651367188 221.807617188 704.71484375 285.8046875 714.422851562 c 1
 343.033203125 700.616210938 475.895507812 660.022460938 480 580 c 1
 480.043945312 360 l 1
 411.880859375 207.825195312 347.665039062 281.084960938 340 338.77734375 c 1
 340 360 l 2
 340.2734375 361.704101562 340.263671875 363.213867188 340 364.547851562 c 2
 340 500 l 1
 260 500 l 1
 260 -10 l 1
 340 -10 l 1
 340 54.9248046875 340 119.849609375 340 184.774414062 c 1
 357.982421875 174.372070312 384.619140625 168.634765625 430 170 c 1
 430 170 543 250 560 320 c 1
 560 640 l 2
 560 748 340 797 340 797 c 1
 340 800 l 1
 260 800 l 1
 260 797 l 1
 260 797 40 758 40 650 c 2
 40 200 l 1
EndSplineSet
Validated: 41
EndChar

StartChar: s
Encoding: 83 115 83
Width: 600
VWidth: 0
Flags: W
VStem: 40 80<353.28 400 600 637.054> 260 80<621.223 670.415> 480 80<353.28 809.787>
CounterMasks: 1 e0
LayerCount: 3
Fore
SplineSet
40 670 m 1
 40 350 l 2
 40 242 260 213 260 213 c 1
 260 -10 l 1
 340 -10 l 1
 340 213 l 1
 340 213 560 242 560 350 c 0
 560 810 l 1
 480 810 l 1
 480 810 486 517 480 400 c 0
 476.206382616 326.030475879 362.395686734 301.502439573 300 293.602757233 c 1
 237.604313266 301.502439573 123.793617384 326.030475879 120 400 c 1
 119.956054688 600 l 1
 188.119612097 752.174604076 252.334981395 678.91492894 260 621.222862515 c 1
 260 600 l 2
 259.726177692 598.296216753 259.736637075 596.785775111 260 595.452220086 c 2
 260 460 l 1
 340 460 l 1
 340 576.666666667 340 693.333333333 340 810 c 1
 260 810 l 1
 260 775.225138114 l 1
 242.017502406 785.62781089 215.380886492 791.364838691 170 790 c 0
 139.014010509 789.068090542 57 729 40 670 c 1
EndSplineSet
Validated: 41
EndChar

StartChar: t
Encoding: 84 116 84
Width: 600
VWidth: 0
Flags: W
VStem: 480 80<200.213 654.728>
LayerCount: 3
Fore
SplineSet
560 200 m 25
 560 200 560 534.8828125 560 650 c 0
 560 758 340 797 340 797 c 25
 340 800 l 1
 260 800 l 1
 260 720 l 1
 260 720 474.764648438 712.081054688 480 610 c 0
 486 493 480 200 480 200 c 1
 560 200 l 25
340 -10 m 29
 340 500 l 29
 260 500 l 29
 260 -10 l 29
 340 -10 l 29
EndSplineSet
Validated: 41
EndChar

StartChar: u
Encoding: 85 117 85
Width: 600
VWidth: 0
Flags: W
HStem: 220 80<184.986 260 340 463> 790 20G<260 340> 790 20G<260 340>
VStem: 260.329 79.6709<-19.9763 220 595.272 809.961>
LayerCount: 3
Fore
SplineSet
260 220 m 1xd0
 190 220 l 2
 82 220 40 440 40 440 c 1
 40 530 l 1
 40 530 254.764648438 537.918945312 260 640 c 0
 266 757 260 810 260 810 c 1
 340 810 l 1
 340 810 340 705.1171875 340 590 c 0
 340 493.941192852 165.959810119 460.378635706 127.473745836 454.131156349 c 1
 138.512791533 390.5266599 165.403938516 303.312887905 230 300 c 1
 462.999997551 298.079506784 l 1
 360 430 l 1
 410 500 l 1
 557 310 l 1
 557 220 l 1
 340 220 l 1
 340 -20 l 1
 260 -20 l 1
 260 -20 259.6640625 12.4208984375 260.329101562 60 c 2
 260 149 l 1
 260 220 l 1xd0
EndSplineSet
Validated: 33
EndChar

StartChar: v
Encoding: 86 118 86
Width: 600
VWidth: 0
Flags: W
VStem: 40 80<355.272 809.787> 260 80<410 600> 480 80<200.213 654.728>
CounterMasks: 1 e0
LayerCount: 3
Fore
SplineSet
260 410 m 25
 260 600 l 25
 340 600 l 25
 340 410 l 25
 260 410 l 25
560 200 m 25
 560 650 l 2
 560 758 340 797 340 797 c 25
 340 800 l 1
 260 800 l 1
 260 720 l 1
 260 720 474.764648438 712.081054688 480 610 c 0
 486 493 480 200 480 200 c 1
 560 200 l 25
40 810 m 25
 40 350 l 2
 40 242 260 213 260 213 c 25
 260 -10 l 1
 340 -10 l 1
 340 290 l 1
 340 290 125.235351562 297.918945312 120 400 c 0
 114 517 120 810 120 810 c 1
 40 810 l 25
EndSplineSet
Validated: 41
EndChar

StartChar: w
Encoding: 87 119 87
Width: 600
VWidth: 0
Flags: W
HStem: 220 78.0795<186.096 463> 790 20G<260 340> 790 20G<260 340>
VStem: 260 80<-19.9763 60 595.272 809.961>
LayerCount: 3
Fore
SplineSet
560 140 m 1x90
 40 140 l 1
 40 60 l 1
 261.329279439 60 l 1
 260.663970673 12.420970073 260 -20 260 -20 c 1
 340 -20 l 1
 340 60 l 1
 413.333333333 60 486.666666667 60 560 60 c 1
 560 140 l 1x90
557 220 m 1
 190 220 l 2
 82 220 40 440 40 440 c 1
 40 530 l 1
 40 530 254.764648438 537.918945312 260 640 c 0
 266 757 260 810 260 810 c 1
 340 810 l 1xd0
 340 590 l 2
 340 493.941192852 165.959810119 460.378635706 127.473745836 454.131156349 c 1
 138.512791533 390.5266599 165.403938516 303.312887905 230 300 c 2
 462.999997551 298.079506784 l 1
 360 430 l 1
 410 500 l 5
 557 310 l 1
 557 220 l 1
EndSplineSet
Validated: 41
EndChar

StartChar: x
Encoding: 88 120 88
Width: 600
VWidth: 0
Flags: W
HStem: -10 21G<260 340> 60 80<40 260 340 560> 790 20G<40 120 260 340> 790 20G<40 120 260 340>
VStem: 40 80<353.28 809.787> 260 80<-10 60 140 210 460 670.415 775.226 810> 480 80<353.28 637.054>
CounterMasks: 1 0e
LayerCount: 3
Fore
SplineSet
560 670 m 1xde
 560 350 l 2
 560 242 340 210 340 210 c 1
 340 140 l 1
 560 140 l 1
 560 60 l 1
 340 60 l 1
 340 -10 l 1
 260 -10 l 1
 260 60 l 1
 40 60 l 1
 40 140 l 1
 260 140 l 1
 260 210 l 1
 260 210 40 242 40 350 c 2
 40 810 l 1
 120 810 l 1
 120 810 114 517 120 400 c 0
 123.793945312 326.030273438 237.604492188 301.501953125 300 293.602539062 c 1
 362.395507812 301.501953125 476.206054688 326.030273438 480 400 c 1
 480.043945312 600 l 1
 411.880859375 752.174804688 347.665039062 678.915039062 340 621.22265625 c 1
 340 600 l 2
 340.2734375 598.295898438 340.263671875 596.786132812 340 595.452148438 c 2
 340 460 l 1
 260 460 l 1
 260 576.666666667 260 693.333333333 260 810 c 1
 340 810 l 1xee
 340 775.225585938 l 1
 357.982421875 785.627929688 384.619140625 791.365234375 430 790 c 0
 460.986328125 789.068359375 543 729 560 670 c 1xde
EndSplineSet
Validated: 33
EndChar

StartChar: y
Encoding: 89 121 89
Width: 600
VWidth: 0
Flags: W
HStem: -20 160<261 340> 60 80<40 261 340 560> 220 80<184.986 557> 790 20G<260 340> 790 20G<260 340>
VStem: 260 80<-19.9766 60 595.3 810>
LayerCount: 3
Fore
SplineSet
376 336 m 25x24
 319 393 l 25
 504 637 l 25
 560 581 l 25
 376 336 l 25x24
560 140 m 1x64
 560 60 l 1
 487 60 413 60 340 60 c 1x64
 340 -20 l 1
 260 -20 l 1xa4
 260 -20 261 12 261 60 c 1
 40 60 l 1
 40 140 l 1
 560 140 l 1x64
557 220 m 1
 557 220 305 220 190 220 c 0
 82 220 40 440 40 440 c 1
 40 530 l 1
 40 530 255 538 260 640 c 0
 262 679 262.666666667 710.888888889 262.666666667 736.074074074 c 0
 262.666666667 786.444444444 260 810 260 810 c 1
 340 810 l 1x34
 340 810 340 705 340 590 c 0
 340 494 166 460 127 454 c 1
 139 391 165 303 230 300 c 0
 269 298 318.333333333 297.333333333 366.777777778 297.333333333 c 0
 463.666666667 297.333333333 557 300 557 300 c 1
 557 220 l 1
EndSplineSet
Validated: 1
EndChar

StartChar: z
Encoding: 90 122 90
Width: 600
VWidth: 0
Flags: W
HStem: -10 21G<260 340> 790 20G<40 120 260 340> 790 20G<40 120 260 340>
VStem: 40 80<353.28 809.787> 260 80<-10 213 460 670.415 775.226 810> 480 80<353.28 637.054>
CounterMasks: 1 1c
LayerCount: 3
Fore
SplineSet
560 670 m 1xbc
 560 350 l 2
 560 242 340 213 340 213 c 1
 340 -10 l 1
 260 -10 l 1
 260 213 l 1
 260 213 40 242 40 350 c 2
 40 810 l 1
 120 810 l 1
 120 810 114 517 120 400 c 0
 123.793945312 326.030273438 237.604492188 301.501953125 300 293.602539062 c 1
 362.395507812 301.501953125 476.206054688 326.030273438 480 400 c 1
 480.043945312 600 l 1
 411.880859375 752.174804688 347.665039062 678.915039062 340 621.22265625 c 1
 340 600 l 2
 340.2734375 598.295898438 340.263671875 596.786132812 340 595.452148438 c 2
 340 460 l 1
 260 460 l 1
 260 576.666666667 260 693.333333333 260 810 c 1
 340 810 l 1xdc
 340 775.225585938 l 1
 357.982421875 785.627929688 384.619140625 791.365234375 430 790 c 0
 460.986328125 789.068359375 543 729 560 670 c 1xbc
EndSplineSet
Validated: 33
EndChar
